<svg xmlns="http://www.w3.org/2000/svg" width="97" height="25" viewBox="0 0 97 25" fill="none"><path d="M88.7787 17.6282H88.6651C88.1111 17.6282 87.5429 17.4719 87.2588 17.1878H87.2445C86.79 16.8184 86.6479 16.4349 86.6195 15.7957C86.6195 15.4831 86.6763 15.1422 86.8042 14.7729C86.6337 14.7729 86.5059 14.645 86.5059 14.4745C86.5059 14.3325 86.6337 14.2046 86.7758 14.1904L87.0599 14.1478C87.3298 13.6222 87.7275 13.054 88.2673 12.4858C88.6509 12.088 89.1055 11.8181 89.347 11.8181C89.8584 11.8181 90.1283 12.0454 90.1283 12.5568C90.1283 13.1676 89.489 14.1478 87.8696 14.5882C87.6991 15.0286 87.6281 15.3979 87.6281 15.6962C87.6281 16.4917 88.1821 16.79 88.9066 16.79C89.6879 16.79 90.6681 16.4633 91.421 16.0514C91.5488 16.0514 93.1824 15.0428 93.3813 14.8865C93.4239 14.8723 93.4097 14.8865 93.4239 14.8439C94.191 14.2615 95.0007 13.537 95.8531 12.6704C95.9099 12.5994 95.9951 12.571 96.0662 12.571C96.2366 12.571 96.3645 12.7131 96.3645 12.8693C96.3645 12.9403 96.3361 13.0256 96.2792 13.0824C95.4127 13.9631 94.5746 14.7018 93.7933 15.2985L93.7791 15.3269C92.5716 16.3213 91.2647 17.1168 90.0146 17.4151C89.56 17.5571 89.1481 17.6282 88.7787 17.6282ZM88.1963 13.8637C89.0913 13.5086 89.5458 12.9261 89.5458 12.571L89.5316 12.4716C89.5316 12.429 89.5032 12.4147 89.4606 12.4005C89.0486 12.5142 88.6509 13.0114 88.1963 13.8637Z" fill="black"></path><path d="M79.4784 21.2932C79.3506 21.2932 79.237 21.2221 79.1943 20.9664V20.3982C79.1943 19.9863 79.2085 19.3612 79.237 18.6225C79.3648 14.8723 79.7626 7.72693 80.5297 4.38864C80.6007 4.17556 80.7854 2.48511 81.2967 2.48511H81.311C81.4814 2.48511 81.5951 2.55613 81.6661 2.68398C81.7371 2.79763 81.7513 2.95389 81.7513 3.13856C81.7513 3.63575 81.5524 4.275 81.5524 4.41705L81.5382 4.5307C81.311 5.45405 81.041 7.6417 80.7854 10.1277C80.5297 12.6136 80.3024 15.3837 80.1603 17.4151C80.7854 15.7104 81.5667 14.2188 82.2911 13.3239C82.6747 12.8551 83.0582 12.5284 83.4276 12.3863C83.5696 12.3437 83.6975 12.3153 83.8253 12.3153C84.1094 12.3153 84.3651 12.429 84.5924 12.6989C84.9476 13.1392 85.1891 13.9916 85.2459 15.3979C85.2743 16.0513 85.3595 16.6906 85.4732 17.202C85.5442 17.4861 85.6436 17.7276 85.7431 17.8839C85.7999 17.9833 85.8567 18.0259 85.8993 18.0259L85.9846 18.0117C86.1266 18.0117 86.2403 18.1111 86.2829 18.239L86.2971 18.31C86.2971 18.4379 86.1834 18.5515 86.0556 18.5941C86.0272 18.6083 85.9846 18.6225 85.9277 18.6225C85.6436 18.6225 85.4732 18.3953 85.3027 18.1111C84.8623 17.4435 84.6919 16.1934 84.6634 15.4263C84.6066 14.162 84.4077 13.4091 84.1378 13.0824C84.0384 12.9688 83.939 12.9119 83.8253 12.9119C83.7685 12.9119 83.6975 12.9261 83.6407 12.9546C83.385 13.0398 83.0724 13.3097 82.7457 13.7074C81.6093 15.0996 80.3734 17.9833 79.8052 20.8954H79.791L79.8052 20.9522L79.791 21.0801C79.7768 21.0943 79.7626 21.1085 79.7626 21.1511C79.7199 21.2221 79.5921 21.2932 79.4784 21.2932Z" fill="black"></path><path d="M80.0762 12.6421C80.1331 12.5853 80.2183 12.5427 80.2893 12.5427C80.3603 12.5427 80.4314 12.5711 80.4882 12.6279C80.5592 12.6847 80.5876 12.7558 80.5876 12.841C80.5876 12.912 80.5734 12.983 80.5166 13.0399C79.7211 13.9348 78.9682 14.6877 78.2579 15.327L78.2437 15.3412C77.8886 15.6679 77.4908 15.9946 77.0647 16.3071C75.5873 17.4152 74.3514 17.9692 73.3997 18.1112C73.2576 18.1254 73.1298 18.1254 73.0019 18.1254H72.803C72.4479 18.1112 72.1212 18.0118 71.8797 17.8697C71.4677 17.6282 71.1978 17.2589 71.0842 16.7617C71.0415 16.5912 71.0273 16.4208 71.0273 16.2361C71.0273 15.4264 71.3683 14.432 72.1212 13.3666C72.6752 12.5995 73.6696 11.9034 74.5219 11.6619C74.7208 11.6193 74.9339 11.5767 75.1043 11.5625H75.1327C75.2464 11.5625 75.3742 11.5767 75.4879 11.6051C75.8146 11.6761 76.0703 11.8466 76.2408 12.1591C76.3402 12.3438 76.397 12.5995 76.397 12.8978C76.397 13.1535 76.3686 13.4234 76.2834 13.7501C76.2692 13.7786 76.2692 13.807 76.255 13.8354C76.1413 13.9916 76.0277 14.0627 75.914 14.0627C75.8572 14.0627 75.7862 14.0485 75.7294 14.0058C75.7009 13.9916 75.7009 13.9774 75.6867 13.9632C75.6015 13.8922 75.5589 13.7928 75.5447 13.6933C75.5447 13.6223 75.5447 13.5087 75.5731 13.4234C75.6157 13.3098 75.6867 13.2103 75.8004 13.1535C75.8146 13.0683 75.8146 12.983 75.8146 12.912C75.8146 12.7131 75.772 12.5569 75.7152 12.429C75.6441 12.3012 75.5163 12.216 75.36 12.1875C75.3032 12.1733 75.2322 12.1591 75.1611 12.1591C74.2094 12.358 73.215 13.3666 72.6041 14.4746C72.3342 14.9576 72.1354 15.469 72.0643 15.9236C72.0359 16.0798 72.0217 16.2361 72.0217 16.3782C72.0217 16.6197 72.0643 16.8469 72.1496 17.0316C72.32 17.3583 72.6468 17.472 73.0161 17.472C73.4707 17.472 73.9821 17.3015 74.323 17.1737C75.218 16.8469 76.1413 16.2787 76.951 15.6537C77.2351 15.4406 77.505 15.2133 77.7892 14.9576L77.846 14.9008C77.846 14.8866 77.8602 14.8866 77.8744 14.8866C78.5563 14.2615 79.2949 13.5229 80.0762 12.6421Z" fill="black"></path><path d="M66.646 16.7333C66.4471 16.7333 66.2625 16.7191 66.0778 16.7049C65.1686 16.6054 64.4868 16.2645 64.0038 15.8099C63.535 15.3696 63.2509 14.8297 63.1657 14.3041C63.0236 14.4462 62.8958 14.5882 62.7537 14.7161C62.4696 14.986 62.1855 15.2417 61.9298 15.469C60.978 16.3071 60.3246 16.648 59.8842 16.6622H59.8558C59.3728 16.6622 59.1455 16.3497 59.1455 15.8525C59.1455 15.7105 59.1597 15.5542 59.2023 15.3838C59.3302 14.8013 59.6995 14.0626 60.2109 13.4092C60.907 12.5711 61.8588 11.875 62.91 11.875C63.2367 11.875 63.5776 11.9318 63.9186 12.0881C64.1032 12.1591 64.2027 12.3296 64.2027 12.4858C64.2027 12.7273 64.0322 12.9546 63.7481 12.9546L63.6202 12.9404C63.4356 12.912 63.2367 12.8836 63.0236 12.8836C62.7679 12.8836 62.498 12.9262 62.2281 13.0683C61.7025 13.3666 61.1911 13.8212 60.7791 14.3041C60.3814 14.7871 60.0973 15.2843 60.012 15.6963L59.9836 15.9094L59.9978 16.0514C60.3246 15.9804 60.8218 15.6679 61.532 15.0286C61.7877 14.8013 62.0576 14.5598 62.3417 14.2899C62.6259 14.0342 62.8958 13.7359 63.1941 13.395C63.2509 13.3382 63.3361 13.2955 63.4214 13.2955C63.4924 13.2955 63.5492 13.324 63.606 13.3666C63.6629 13.4234 63.7055 13.4944 63.7197 13.5655L63.7339 13.6791C63.7339 13.6933 63.7339 13.7075 63.7481 13.7217C63.8901 14.3468 64.2169 15.0286 64.7851 15.4974C65.2539 15.8952 65.8931 16.1366 66.7596 16.1366C66.9443 16.1366 67.0864 16.1366 67.2853 16.1082H67.3279C67.4273 16.094 67.5409 16.0798 67.6546 16.0514H67.6972C68.4501 15.9094 69.1604 15.5826 69.9559 15.0286C70.794 14.4888 71.7316 13.6933 72.9248 12.6421C72.9817 12.5853 73.0527 12.5711 73.1237 12.5711C73.2089 12.5711 73.2942 12.5995 73.351 12.6705C73.3936 12.7273 73.422 12.7984 73.422 12.8694C73.422 12.9404 73.3794 13.0256 73.3226 13.0825C72.1151 14.1479 71.1634 14.9434 70.2968 15.5258C69.4019 16.1224 68.6348 16.4634 67.7966 16.6196L67.7682 16.6338C67.6262 16.6622 67.4983 16.6765 67.3847 16.6907H67.3563C67.1006 16.7191 66.8733 16.7333 66.646 16.7333Z" fill="black"></path><path d="M50.6837 18.9492C50.428 18.9492 50.1865 18.7219 50.1865 18.2247C50.1865 18.0117 50.1865 17.6849 50.2007 17.2872C50.2718 15.4263 50.5701 12.088 50.8684 11.3209C50.911 11.193 51.0246 11.0936 51.1383 11.0368C51.2093 11.0083 51.2946 10.9941 51.3656 10.9941C51.8486 11.0226 52.1753 11.8039 52.1753 12.301C52.1753 12.5283 52.1043 12.6846 51.948 12.6846C51.877 12.6846 51.7633 12.642 51.6213 12.5141C51.5929 13.2528 51.5502 13.8636 51.465 14.6592C51.6639 14.0767 52.0759 12.9403 52.6441 12.6562C52.8714 12.4999 53.1129 12.4289 53.3543 12.4289C53.7095 12.4289 54.1072 12.5852 54.6044 12.8124C55.7693 13.4091 56.9341 13.7642 58.17 13.7642C58.7098 13.7642 59.2638 13.6932 59.8463 13.5511C60.2298 13.4659 60.8406 13.1676 61.1247 12.8977C61.1958 12.8409 61.2668 12.8124 61.3378 12.8124C61.4231 12.8124 61.4941 12.8409 61.5509 12.8977C61.5935 12.9545 61.6219 13.0113 61.6219 13.0823C61.6219 13.1676 61.5793 13.267 61.5225 13.3238C60.5423 14.233 59.2638 14.6023 57.9569 14.6023C56.65 14.6023 55.3147 14.233 54.2351 13.6932C53.9226 13.5511 53.6953 13.4659 53.468 13.4659H53.4112C53.1981 13.4801 53.0418 13.608 52.6583 14.1904C52.4736 14.5455 52.2463 14.858 52.1327 15.2984C52.019 15.753 51.8628 16.1223 51.7633 16.5485C51.5929 17.344 51.5076 17.8554 51.4366 18.1963C51.323 18.6651 50.982 18.9492 50.6837 18.9492Z" fill="black"></path><path d="M31.2468 11.6619C33.4628 10.8806 35.5794 9.27534 37.3125 7.42862C39.0882 5.52509 40.4377 3.36585 40.9775 1.54755C41.0201 1.39129 41.0485 1.24924 41.0912 1.10718C41.1622 0.837277 41.3326 0.723633 41.5173 0.723633C41.7446 0.723633 41.9719 0.908305 41.9719 1.24924C41.9719 1.27765 41.9577 1.32026 41.9577 1.36288C40.6934 7.71273 39.8127 14.9291 39.7274 19.4323C39.7274 19.6453 39.7132 19.8584 39.7132 20.0715C39.7132 21.0659 39.77 21.904 39.8695 22.5291C39.9689 23.1683 40.0968 23.5234 40.2388 23.5661H40.253C40.3951 23.5661 40.5656 23.5661 40.6508 23.7365C40.6792 23.7791 40.6934 23.836 40.6934 23.8786C40.6934 24.1059 40.3809 24.2763 40.0399 24.2763C39.8269 24.2763 39.628 24.2195 39.4575 24.0775C39.1876 23.8502 38.9887 23.4098 38.8609 22.7563C38.7046 21.904 38.6336 20.7534 38.6336 19.4038C38.6336 17.5571 38.7615 15.3411 39.0029 12.9972C39.2871 10.1703 39.7416 7.17292 40.3099 4.44547C39.628 5.59612 38.7472 6.76096 37.7387 7.84058C36.1334 9.57365 34.1447 11.0936 32.0707 11.9744C32.1701 12.0596 32.2411 12.1448 32.3264 12.2443C32.5537 12.5568 32.7383 12.9688 32.8378 13.4375C32.8662 13.5228 32.8804 13.6222 32.8946 13.7074C32.9514 14.02 32.9798 14.3467 32.9798 14.6734C32.9798 15.1706 32.9088 15.682 32.7667 16.1224C32.511 16.9179 32.0281 17.5429 31.3036 17.7134H31.2894C31.2468 17.7276 31.2325 17.7418 31.1899 17.7418C31.0905 17.756 30.9768 17.7702 30.8916 17.7702C30.295 17.7702 29.883 17.4435 29.6415 16.9179C29.4569 16.5343 29.3716 16.0087 29.3574 15.4689C29.3574 14.9433 29.4284 14.3751 29.5705 13.8495C29.8688 12.6704 30.4797 11.6903 31.2468 11.6619ZM31.3888 12.2727C31.3036 12.3721 31.2041 12.5284 31.1047 12.6989C30.7922 13.2955 30.5365 14.2046 30.437 15.0854C30.4228 15.2558 30.3944 15.5684 30.3944 15.8809C30.3944 16.4917 30.4939 17.1594 31.0053 17.1594C31.0621 17.1594 31.1047 17.1594 31.1615 17.1452C31.6587 17.0173 31.9996 16.5485 32.1985 15.9519C32.3264 15.5542 32.3832 15.1138 32.3832 14.6734C32.3832 14.3751 32.369 14.091 32.3122 13.8211C32.298 13.7359 32.2838 13.6506 32.2553 13.5654C32.1701 13.1818 32.0281 12.8409 31.8434 12.5994C31.7155 12.429 31.5735 12.3153 31.3888 12.2727Z" fill="black"></path><path d="M21.2044 17.756C20.9203 17.756 20.8067 17.3441 20.8067 16.1508C20.8067 14.8439 20.8777 12.7983 21.0198 11.4488C19.585 13.2529 17.3689 15.5542 15.2807 16.5344H15.2665C14.7125 16.8043 14.1301 16.9605 13.5619 16.9605C12.397 16.9605 11.3174 16.3071 10.735 14.6024C10.3798 14.9575 10.0389 15.1706 9.66957 15.5116C8.71781 16.3497 8.05015 16.7048 7.59557 16.7048C7.09838 16.7048 6.87109 16.3781 6.87109 15.8951C6.87109 14.6024 8.54734 11.9176 10.6498 11.9176C11.0617 11.9176 11.8288 12.017 11.8288 12.3721C11.8288 12.571 11.6299 12.7983 11.4168 12.7983C11.3032 12.7983 11.2322 12.7699 11.1043 12.7699C9.76901 12.7699 7.95071 14.5882 7.75183 15.7388L7.72342 15.9661L7.73763 16.094C8.1922 15.9945 8.88827 15.4263 10.0815 14.3467C10.3514 14.0768 10.6355 13.7785 10.9197 13.4518C10.9907 13.3807 11.0759 13.3381 11.1612 13.3381C11.3032 13.3381 11.4453 13.4518 11.4453 13.6222C11.4453 13.6791 11.4737 13.6933 11.4737 13.7927C11.8714 15.6536 12.6243 16.3497 13.6187 16.3497C14.0449 16.3497 14.5136 16.2218 14.9966 16.0087C15.0108 16.0087 15.025 16.0088 15.025 15.9945C17.4116 14.9575 20.3663 11.463 21.247 10.1419C21.3323 9.94301 21.5596 9.90039 21.7869 9.90039C22.1562 9.95721 22.3835 10.0851 22.3835 10.4544C22.2414 11.1079 22.1278 12.1307 22.0141 13.1677C22.1136 12.8835 22.2272 12.6136 22.3409 12.3579C22.8097 11.3636 23.4915 11.0652 24.2444 11.0652C25.2814 11.0652 26.5173 11.6193 27.398 11.6193C27.739 11.6193 28.0231 11.534 28.2504 11.3209C28.3072 11.2641 28.3782 11.2357 28.4634 11.2357C28.6197 11.2357 28.7617 11.3778 28.7617 11.5198C28.7617 11.605 28.7333 11.6761 28.6623 11.7329C28.3072 12.088 27.881 12.2159 27.4122 12.2159C26.4178 12.2159 25.2672 11.6761 24.3296 11.6761C23.733 11.6761 23.2074 11.8892 22.8807 12.5994C21.9715 14.574 21.7442 17.756 21.2044 17.756Z" fill="black"></path><path d="M9.0489 12.6421C9.10572 12.5853 9.19095 12.5427 9.26198 12.5427C9.33301 12.5427 9.40403 12.5711 9.46086 12.6279C9.53188 12.6847 9.56029 12.7558 9.56029 12.841C9.56029 12.912 9.54609 12.983 9.48927 13.0399C8.69376 13.9348 7.94087 14.6877 7.23059 15.327L7.21639 15.3412C6.86125 15.6679 6.4635 15.9946 6.03733 16.3071C4.55996 17.4152 3.32408 17.9692 2.37232 18.1112C2.23026 18.1254 2.10241 18.1254 1.97456 18.1254H1.77569C1.42055 18.1112 1.09382 18.0118 0.852329 17.8697C0.44037 17.6282 0.170466 17.2589 0.0568218 16.7617C0.0142054 16.5912 0 16.4208 0 16.2361C0 15.4264 0.340932 14.432 1.09382 13.3666C1.64784 12.5995 2.64222 11.9034 3.49455 11.6619C3.69343 11.6193 3.90651 11.5767 4.07697 11.5625H4.10539C4.21903 11.5625 4.34688 11.5767 4.46052 11.6051C4.78725 11.6761 5.04295 11.8466 5.21341 12.1591C5.31285 12.3438 5.36967 12.5995 5.36967 12.8978C5.36967 13.1535 5.34126 13.4234 5.25603 13.7501C5.24182 13.7786 5.24183 13.807 5.22762 13.8354C5.11398 13.9916 5.00033 14.0627 4.88669 14.0627C4.82987 14.0627 4.75884 14.0485 4.70202 14.0058C4.67361 13.9916 4.67361 13.9774 4.6594 13.9632C4.57417 13.8922 4.53155 13.7928 4.51734 13.6933C4.51734 13.6223 4.51734 13.5087 4.54576 13.4234C4.58837 13.3098 4.6594 13.2103 4.77304 13.1535C4.78725 13.0683 4.78725 12.983 4.78725 12.912C4.78725 12.7131 4.74463 12.5569 4.68781 12.429C4.61678 12.3012 4.48893 12.216 4.33267 12.1875C4.27585 12.1733 4.20482 12.1591 4.1338 12.1591C3.18203 12.358 2.18765 13.3666 1.57681 14.4746C1.3069 14.9576 1.10803 15.469 1.037 15.9236C1.00859 16.0798 0.994384 16.2361 0.994384 16.3782C0.994384 16.6197 1.037 16.8469 1.12223 17.0316C1.2927 17.3583 1.61943 17.472 1.98877 17.472C2.44334 17.472 2.95474 17.3015 3.29567 17.1737C4.19062 16.8469 5.11398 16.2787 5.92369 15.6537C6.2078 15.4406 6.4777 15.2133 6.76181 14.9576L6.81863 14.9008C6.81863 14.8866 6.83284 14.8866 6.84705 14.8866C7.52891 14.2615 8.26759 13.5229 9.0489 12.6421Z" fill="black"></path></svg>